<svg xmlns="http://www.w3.org/2000/svg" xmlns:xlink="http://www.w3.org/1999/xlink" width="15" height="15" version="1.1" viewBox="0 0 15 15"><title>all</title><desc>Created with Sketch.</desc><g id="Design" fill="none" fill-rule="evenodd" stroke="none" stroke-width="1"><g id="top" fill="#FFF"><polygon id="Fill-4-Copy" fill-opacity=".27" points="5.5 9.5 9.5 9.5 9.5 5.5 5.5 5.5"/><polygon id="Fill-1-Copy-2" fill-opacity=".27" points="1.172 1.172 1.172 15 3.824 12.349 3.824 3.824 12.349 3.824 15 1.172" transform="translate(8.086057, 8.086057) rotate(-180.000000) translate(-8.086057, -8.086057)"/><polygon id="Fill-1-Copy" points="0 0 0 13.828 2.651 11.176 2.651 2.651 11.177 2.651 13.828 0"/></g><g id="bot" fill="#FFF" transform="translate(7.500000, 7.500000) scale(-1, -1) translate(-7.500000, -7.500000)"><polygon id="Fill-4-Copy" fill-opacity=".27" points="5.5 9.5 9.5 9.5 9.5 5.5 5.5 5.5"/><polygon id="Fill-1-Copy-2" fill-opacity=".27" points="1.172 1.172 1.172 15 3.824 12.349 3.824 3.824 12.349 3.824 15 1.172" transform="translate(8.086057, 8.086057) rotate(-180.000000) translate(-8.086057, -8.086057)"/><polygon id="Fill-1-Copy" points="0 0 0 13.828 2.651 11.176 2.651 2.651 11.177 2.651 13.828 0"/></g></g></svg>